C:\Users\israe\Dropbox\PhDWork\Simulation\code\PassiveMoments\Data\ultrasoundFiles.mot
nRows=54
nColumns=7

name C:\Users\israe\Dropbox\PhDWork\Simulation\code\PassiveMoments\Data\ultrasoundFiles.mot
datacolumns 7
datarows 54
range 0.5700000000 1.1000000000
endheader
time	gaslat	gasmed	soleus	vaslat	vasmed	vasint
        0.5700000000	        0.8948350072	        0.8906719641	        0.8847457627	        0.9367706149	        0.9367706149	        0.9367706149	
        0.5800000000	        0.8962874708	        0.8909417947	        0.8856667908	        0.9239080818	        0.9239080818	        0.9239080818	
        0.5900000000	        0.8976047535	        0.8922577302	        0.8869942528	        0.9120980999	        0.9120980999	        0.9120980999	
        0.6000000000	        0.8993676611	        0.8926508808	        0.8890620661	        0.9011949166	        0.9011949166	        0.9011949166	
        0.6100000000	        0.9000000000	        0.8919623241	        0.8912080818	        0.8931038084	        0.8931038084	        0.8931038084	
        0.6200000000	        0.9000000000	        0.8902898779	        0.8926789669	        0.8894058085	        0.8894058085	        0.8894058085	
        0.6300000000	        0.8994035917	        0.8883199368	        0.8937932185	        0.8843439492	        0.8843439492	        0.8843439492	
        0.6400000000	        0.8973474974	        0.8861391710	        0.8940951340	        0.8841430522	        0.8841430522	        0.8841430522	
        0.6500000000	        0.8940911642	        0.8838113474	        0.8940951340	        0.8861232758	        0.8861232758	        0.8861232758	
        0.6600000000	        0.8893110911	        0.8817262982	        0.8940951340	        0.8894058085	        0.8894058085	        0.8894058085	
        0.6700000000	        0.8838192739	        0.8799015219	        0.8930607433	        0.8916179501	        0.8916179501	        0.8916179501	
        0.6800000000	        0.8783274567	        0.8786409412	        0.8912380733	        0.8946685648	        0.8946685648	        0.8946685648	
        0.6900000000	        0.8734343445	        0.8781441841	        0.8892016632	        0.8960600732	        0.8960600732	        0.8960600732	
        0.7000000000	        0.8704162979	        0.8782173339	        0.8867890884	        0.8999313210	        0.8999313210	        0.8999313210	
        0.7100000000	        0.8698708752	        0.8796009468	        0.8862061302	        0.8988787698	        0.8988787698	        0.8988787698	
        0.7200000000	        0.8704300576	        0.8815520562	        0.8862219792	        0.8999313210	        0.8999313210	        0.8999313210	
        0.7300000000	        0.8725669232	        0.8831404817	        0.8866306493	        0.8999313210	        0.8999313210	        0.8999313210	
        0.7400000000	        0.8751198042	        0.8841860934	        0.8880801722	        0.8984862930	        0.8984862930	        0.8984862930	
        0.7500000000	        0.8772808934	        0.8850751425	        0.8904183819	        0.8946685648	        0.8946685648	        0.8946685648	
        0.7600000000	        0.8785966947	        0.8850751425	        0.8916464494	        0.8929916187	        0.8929916187	        0.8929916187	
        0.7700000000	        0.8793400287	        0.8846528440	        0.8927607009	        0.8894058085	        0.8894058085	        0.8894058085	
        0.7800000000	        0.8793400287	        0.8841570546	        0.8935797092	        0.8842094046	        0.8842094046	        0.8842094046	
        0.7900000000	        0.8789808670	        0.8844190180	        0.8948537016	        0.8805394022	        0.8805394022	        0.8805394022	
        0.8000000000	        0.8782265323	        0.8850313544	        0.8955713505	        0.8756873520	        0.8756873520	        0.8756873520	
        0.8100000000	        0.8780487805	        0.8866979645	        0.8964442574	        0.8685740122	        0.8685740122	        0.8685740122	
        0.8200000000	        0.8780487805	        0.8882055681	        0.8972476901	        0.8670346344	        0.8670346344	        0.8670346344	
        0.8300000000	        0.8777671862	        0.8895661799	        0.8978532309	        0.8630920272	        0.8630920272	        0.8630920272	
        0.8400000000	        0.8779650741	        0.8910118840	        0.8987941707	        0.8578292709	        0.8578292709	        0.8578292709	
        0.8500000000	        0.8784791966	        0.8916047677	        0.8992627258	        0.8535229480	        0.8535229480	        0.8535229480	
        0.8600000000	        0.8784791966	        0.8922387343	        0.8999820523	        0.8497299782	        0.8497299782	        0.8497299782	
        0.8700000000	        0.8789820498	        0.8925375713	        0.8995079278	        0.8471377109	        0.8471377109	        0.8471377109	
        0.8800000000	        0.8793400287	        0.8925375713	        0.8998023371	        0.8420410021	        0.8420410021	        0.8420410021	
        0.8900000000	        0.8798477738	        0.8933492412	        0.9000000000	        0.8420410021	        0.8420410021	        0.8420410021	
        0.9000000000	        0.8803185285	        0.8934703748	        0.9000000000	        0.8387406296	        0.8387406296	        0.8387406296	
        0.9100000000	        0.8810616930	        0.8941480553	        0.9000000000	        0.8367782459	        0.8367782459	        0.8367782459	
        0.9200000000	        0.8818075184	        0.8944031784	        0.8992457786	        0.8382054340	        0.8382054340	        0.8382054340	
        0.9300000000	        0.8823646135	        0.8950118723	        0.8990158557	        0.8420410021	        0.8420410021	        0.8420410021	
        0.9400000000	        0.8829726978	        0.8958065296	        0.8990158557	        0.8420410021	        0.8420410021	        0.8420410021	
        0.9500000000	        0.8835260073	        0.8962687856	        0.8984136928	        0.8443423430	        0.8443423430	        0.8443423430	
        0.9600000000	        0.8836441894	        0.8965091011	        0.8980317113	        0.8451986559	        0.8451986559	        0.8451986559	
        0.9700000000	        0.8838324052	        0.8971975792	        0.8972489457	        0.8520454383	        0.8520454383	        0.8520454383	
        0.9800000000	        0.8842868954	        0.8972015892	        0.8968369845	        0.8536369058	        0.8536369058	        0.8536369058	
        0.9900000000	        0.8845050215	        0.8972015892	        0.8956180556	        0.8583975683	        0.8583975683	        0.8583975683	
        1.0000000000	        0.8849398147	        0.8976501869	        0.8944053896	        0.8631964936	        0.8631964936	        0.8631964936	
        1.0100000000	        0.8855820905	        0.8978482276	        0.8932829105	        0.8683547835	        0.8683547835	        0.8683547835	
        1.0200000000	        0.8862266858	        0.8981343928	        0.8916848143	        0.8731662186	        0.8731662186	        0.8731662186	
        1.0300000000	        0.8867934305	        0.8986007946	        0.8907806478	        0.8779036141	        0.8779036141	        0.8779036141	
        1.0400000000	        0.8876227636	        0.8986007946	        0.8893537215	        0.8827515438	        0.8827515438	        0.8827515438	
        1.0500000000	        0.8884031288	        0.8995335982	        0.8881452308	        0.8876039835	        0.8876039835	        0.8876039835	
        1.0600000000	        0.8891279819	        0.8995335982	        0.8873269311	        0.8935089744	        0.8935089744	        0.8935089744	
        1.0700000000	        0.8888967245	        0.8991092382	        0.8863154700	        0.8999521333	        0.8999521333	        0.8999521333	
        1.0800000000	        0.8888091822	        0.8996268786	        0.8852378349	        0.9107152970	        0.9107152970	        0.9107152970	
        1.0900000000	        0.8888091822	        0.9000000000	        0.8842150434	        0.9164302883	        0.9164302883	        0.9164302883	
        1.1000000000	        0.8888091822	        0.8995335982	        0.8830660452	        0.9247496605	        0.9247496605	        0.9247496605	
